<svg width="256" height="256" viewBox="0 0 256 256" fill="none" xmlns="http://www.w3.org/2000/svg">
<path d="M128 69.25C87.0042 69.25 51.4605 93.126 34 128C51.4605 162.874 87.0042 186.75 128 186.75C168.996 186.75 204.54 162.874 222 128C204.54 93.126 168.996 69.25 128 69.25ZM174.354 100.411C185.399 107.461 194.763 116.896 201.79 128C194.785 139.103 185.417 148.523 174.354 155.589C160.513 164.433 144.431 169.132 128.006 169.132C111.581 169.132 95.4989 164.433 81.658 155.589C70.5996 148.517 61.2327 139.098 54.2217 128C61.6876 116.169 71.8305 106.26 83.8318 99.0715C81.249 106.171 80.4158 113.789 81.4029 121.28C82.3899 128.77 85.1682 135.912 89.5021 142.1C93.8361 148.289 99.598 153.341 106.3 156.829C113.001 160.318 120.445 162.139 128 162.139C135.555 162.139 142.999 160.318 149.7 156.829C156.402 153.341 162.164 148.289 166.498 142.1C170.832 135.912 173.61 128.77 174.597 121.28C175.584 113.789 174.751 106.171 172.168 99.0715C172.897 99.5063 173.625 99.9527 174.342 100.411H174.354ZM128 110.375C127.998 115.051 126.139 119.535 122.832 122.84C119.524 126.146 115.039 128.002 110.363 128C105.687 127.998 101.203 126.139 97.8981 122.832C94.5927 119.524 92.7367 115.039 92.7383 110.363C92.7398 105.687 94.5988 101.203 97.9064 97.8981C101.214 94.5927 105.699 92.7367 110.375 92.7383C115.051 92.7398 119.535 94.5988 122.84 97.9064C126.146 101.214 128.002 105.699 128 110.375Z" fill="white"/>
</svg>
